PathFileType	4	(X/Y/Z)	C:/Users/opensim2020/Desktop/walking_exp_matlab/subject02_walking06_straight_04.trc																																																																																																																									
DataRate	CameraRate	NumFrames	NumMarkers	Units	OrigDataRate	OrigDataStartFrame	OrigNumFrames																																																																																																																					
100	100	8	41	mm	100	2736	216																																																																																																																					
Frame#	Time	LFHD			RFHD			LBHD			RBHD			C7			T10			CLAV			STRN			RBAK			LSHO			LUPA			LELB			LFRM			LWRA			LWRB			LFIN			RSHO			RUPA			RELB			RFRM			RWRA			RWRB			RFIN			LASI			RASI			LPSI			RPSI			LTHI			LKNE			LTIB			LANK			LHEE			LTOE			RTHI			RKNE			RTIB			RANK			RHEE			RTOE			*39			*40		
		X1	Y1	Z1	X2	Y2	Z2	X3	Y3	Z3	X4	Y4	Z4	X5	Y5	Z5	X6	Y6	Z6	X7	Y7	Z7	X8	Y8	Z8	X9	Y9	Z9	X10	Y10	Z10	X11	Y11	Z11	X12	Y12	Z12	X13	Y13	Z13	X14	Y14	Z14	X15	Y15	Z15	X16	Y16	Z16	X17	Y17	Z17	X18	Y18	Z18	X19	Y19	Z19	X20	Y20	Z20	X21	Y21	Z21	X22	Y22	Z22	X23	Y23	Z23	X24	Y24	Z24	X25	Y25	Z25	X26	Y26	Z26	X27	Y27	Z27	X28	Y28	Z28	X29	Y29	Z29	X30	Y30	Z30	X31	Y31	Z31	X32	Y32	Z32	X33	Y33	Z33	X34	Y34	Z34	X35	Y35	Z35	X36	Y36	Z36	X37	Y37	Z37	X38	Y38	Z38	X39	Y39	Z39	X40	Y40	Z40	X41	Y41	Z41
																																																																																																																												
82	0.81	50.80944	1745.08533	932.35449	51.88123	1733.44482	1076.0304	-77.32335	1666.13782	927.40436	-88.91632	1652.82239	1071.23474	-127.26649	1527.58875	1005.53925	-173.87102	1251.03296	1013.20154	14.03211	1462.38025	995.34576	70.24102	1292.29297	1012.18286	-181.33022	1353.46753	1074.29736	-55.3933	1496.12756	825.08911	-53.22993	1291.39563	747.21289	-45.16829	1149.98975	738.75983	-20.06673	1020.26422	731.96497	47.26308	903.20508	771.08112	4.14868	900.05609	734.50208	31.08434	840.09033	731.87445	-48.23635	1503.29565	1191.64014	-61.09606	1312.32349	1280.10876	-30.40932	1167.10144	1299.59937	21.28404	1056.60266	1312.18225	88.7666	941.20709	1281.80493	49.97646	929.73175	1321.29614	96.94556	873.63043	1313.94739	69.67587	998.59863	883.47351	57.38055	977.57306	1139.15271	-143.82632	1038.87036	952.37207	-153.1483	1032.05017	1066.87366	12.18151	683.85535	831.09473	-13.73851	480.83148	865.06091	-59.87079	290.20639	870.58032	-44.73207	69.51424	917.22144	-81.34811	42.72073	968.26263	113.35126	33.75417	913.99823	16.7189	672.18549	1215.79004	41.23369	476.37387	1201.50793	-99.93872	361.4845	1193.43774	-227.61592	220.36116	1152.59631	-273.52026	191.02661	1086.34644	-163.32039	80.74669	1199.63965	-52.84653	1811.5376	1019.10992	NaN	NaN	NaN
83	0.82	60.97006	1745.60425	932.45898	61.69752	1733.76782	1075.97314	-67.29953	1667.02551	927.02606	-79.19479	1653.34595	1070.87585	-117.6049	1528.36743	1004.87756	-164.83031	1251.95435	1011.91455	23.54448	1462.88794	994.86945	79.31791	1292.57849	1011.23431	-172.11861	1354.17224	1072.72681	-45.15435	1497.45203	824.63123	-39.43722	1293.02478	746.22906	-27.97616	1151.77026	737.25378	1.94026	1022.84259	731.62384	72.47283	908.72308	772.91119	30.27859	903.52356	735.45905	59.63161	844.76746	733.4364	-38.82842	1503.453	1191.39026	-53.32536	1312.47058	1279.3363	-24.5082	1166.84143	1298.35498	25.41791	1055.6825	1311.48718	91.2701	939.32715	1281.83044	51.82317	928.46704	1321.25195	97.63116	871.23187	1314.05627	76.64057	998.53546	881.90686	67.40297	979.17419	1136.93799	-135.95503	1039.54285	952.47821	-144.45168	1032.85278	1067.21277	16.11206	683.50598	831.15314	-10.88613	480.69321	865.28198	-58.55753	290.38208	871.01184	-44.55312	69.59591	917.49811	-81.27332	42.75534	968.67993	113.4556	33.708	913.89069	31.19265	674.03687	1214.53638	59.07487	478.39404	1199.47559	-78.67514	359.04752	1191.87244	-201.58826	213.41725	1151.57813	-247.14313	181.86168	1085.66296	-130.96777	77.39136	1198.58582	-42.55901	1812.05884	1019.1994	NaN	NaN	NaN
84	0.83	71.02886	1746.23108	932.44464	71.63619	1733.82605	1076.26746	-57.23629	1667.85144	926.91577	-69.3447	1653.76355	1070.4563	-107.93709	1529.03662	1004.19269	-155.79146	1252.74854	1010.75293	33.01881	1463.3302	994.44574	88.27471	1292.76648	1010.33734	-163.10939	1354.8728	1071.82373	-34.96152	1498.5979	824.1828	-25.87865	1294.79565	745.091	-10.8214	1153.59875	735.69653	23.52183	1025.52197	731.28064	97.87682	914.44208	774.328	56.15524	907.24414	736.41455	88.07623	850.02264	735.2135	-29.51026	1503.30396	1190.70081	-45.71884	1312.44556	1278.68396	-18.75138	1166.79504	1297.75122	29.43254	1054.74451	1311.08606	93.44904	937.05255	1282.23328	53.64769	927.15601	1321.36975	98.40628	868.96484	1314.33557	82.58677	998.11511	880.56781	76.17284	980.17072	1134.75525	-128.13203	1039.82629	952.84521	-135.71355	1033.5658	1067.90002	20.40476	683.14099	831.22437	-7.46917	480.48706	865.56378	-56.23745	290.58752	871.14874	-44.36626	69.70377	917.78668	-81.10878	42.91138	968.92316	113.58547	33.64447	913.82568	45.36621	675.90344	1213.7085	76.56657	480.29324	1197.44983	-57.20214	355.98105	1190.63745	-175.00128	205.89294	1150.80212	-219.8783	172.07613	1085.17126	-97.91053	73.78964	1197.55884	-32.46519	1812.60754	1019.42169	NaN	NaN	NaN
85	0.84	81.7236	1746.48279	933.24298	81.65151	1733.57251	1076.62122	-46.58508	1668.22217	926.98328	-59.75295	1653.97534	1070.29126	-98.24787	1529.61389	1003.53864	-146.92418	1253.41028	1009.87274	42.45596	1463.54944	993.99896	97.19328	1292.84143	1009.37952	-154.02986	1355.62134	1070.89905	-24.82104	1499.61328	823.77295	-12.38704	1296.50098	743.98279	6.04456	1155.44971	734.19952	45.40171	1028.2561	731.09412	122.71656	920.7746	776.11548	81.98989	911.52502	737.39423	116.2683	855.70569	737.04816	-20.28509	1503.08057	1190.09534	-38.32695	1312.24841	1278.02014	-13.11413	1166.44482	1297.08813	33.29739	1053.90955	1310.7406	95.54761	935.00903	1282.31787	55.46653	925.77814	1321.46704	99.19021	866.85095	1314.84216	89.63217	998.06799	878.57141	85.54865	980.99451	1132.50696	-120.64799	1040.05591	953.58228	-127.04147	1034.28491	1068.87683	25.14852	682.67273	831.4361	-3.78633	480.26019	866.005	-53.72258	290.80746	871.17206	-44.07258	69.85934	918.05994	-80.83334	43.02256	969.20221	113.75778	33.53246	913.81281	59.09975	677.64166	1212.83643	93.67419	482.07379	1195.59717	-35.63985	352.50217	1190.09058	-147.76515	197.88231	1150.19531	-191.67224	162.04527	1084.82654	-64.3568	70.0638	1196.61145	-22.07864	1813.03198	1019.89917	NaN	NaN	NaN
86	0.85	91.56879	1746.65137	933.21332	91.53197	1733.37195	1076.93774	-36.7195	1668.7793	926.70905	-49.8877	1654.23364	1070.07568	-88.59667	1530.12964	1003.01215	-137.98192	1253.95959	1009.23718	51.87871	1463.71997	993.63684	106.07188	1292.79321	1008.45032	-145.0208	1356.01721	1070.01306	-14.70455	1500.47961	823.37598	0.96518	1298.19739	742.88776	22.89542	1157.37622	732.68402	66.87981	1031.71814	730.83081	147.00989	927.04211	777.65918	107.33517	916.09613	738.60767	144.41768	862.03363	738.93567	-10.88556	1502.72131	1189.70435	-31.09904	1311.97131	1277.40588	-7.57628	1165.82959	1296.14319	36.95661	1052.86914	1311.06885	97.6235	932.74963	1282.77588	57.25135	924.37286	1321.61035	100.12524	864.84174	1315.37476	96.22258	997.72083	876.68768	95.04572	981.57587	1130.29529	-113.20446	1040.20715	954.61963	-118.23487	1035.06042	1070.10706	30.24502	682.24396	831.79199	0.0214	480.00534	866.48853	-51.03558	290.94104	871.35657	-43.75019	70.0254	918.32587	-80.79807	43.18037	969.44855	113.9823	33.40983	913.82593	72.46646	679.30505	1212.22705	110.31258	483.77972	1193.67773	-13.89281	348.53586	1189.29932	-119.99046	189.59306	1149.85913	-163.00827	151.49207	1084.83936	-30.17825	66.59172	1195.81824	-11.82211	1813.11609	1020.18317	NaN	NaN	NaN
87	0.86	102.17616	1746.52063	934.06934	101.4959	1732.87219	1077.33545	-26.73455	1669.6875	926.72485	-40.32849	1653.98535	1069.97729	-78.97318	1530.4873	1002.50873	-129.19673	1254.43445	1008.80219	61.26458	1463.66248	993.24896	114.96745	1292.57068	1007.5025	-135.9856	1356.55212	1069.15076	-4.64539	1501.24817	823.06262	14.16183	1299.82739	741.89001	39.20517	1159.33594	731.26447	87.83252	1034.82373	730.58142	171.59738	934.08728	779.09875	132.59586	921.24426	739.60101	171.78975	868.41296	740.8653	-1.41706	1502.03491	1189.3623	-24.02847	1311.59766	1276.74622	-2.10219	1165.47168	1295.8418	40.74555	1051.50146	1310.38733	99.78329	930.78613	1283.19983	59.00167	922.96826	1321.80408	101.1327	862.93567	1316.05591	102.62582	997.19104	874.93268	104.4451	981.8913	1128.18677	-105.75856	1040.25793	955.76288	-109.41909	1035.8219	1071.46655	35.45313	681.71002	832.05981	3.98511	479.75528	866.9942	-48.27086	291.18237	871.58405	-43.37406	70.18542	918.63757	-80.95663	43.88472	969.52399	114.24635	33.19297	913.9021	85.46024	680.67664	1211.24146	126.53931	485.49359	1192.17932	7.82333	344.47495	1188.42749	-91.82014	181.26144	1149.74878	-133.59895	140.92889	1085.0498	4.45963	63.46332	1195.20959	-1.51398	1813.10242	1020.60669	NaN	NaN	NaN
88	0.87	112.65144	1746.56177	934.6405	111.49577	1732.27258	1077.85791	-16.76069	1670.0575	926.68927	-30.44863	1653.974	1069.8136	-69.37085	1530.70886	1002.08942	-120.39992	1254.74475	1008.64819	70.3815	1463.42529	993.02673	123.79753	1292.21741	1006.55096	-127.00439	1356.8324	1068.46716	5.39984	1501.92151	822.76257	27.31388	1301.44043	740.94501	55.6346	1161.31726	729.81238	108.21424	1038.55652	730.35162	195.06197	941.08679	780.55444	157.51027	926.64948	740.84064	198.31697	875.38782	742.86914	7.92636	1501.50879	1188.88916	-17.01727	1311.0686	1275.83362	3.34893	1164.88464	1295.33032	44.45039	1050.53394	1310.5415	101.90322	928.87592	1283.56799	60.77219	921.5744	1322.02771	102.25433	861.15515	1316.82678	109.33472	996.54059	873.10529	113.92036	981.96979	1126.34497	-98.32076	1040.26758	957.10431	-100.61243	1036.57886	1072.9928	40.79667	681.12366	832.47003	8.04224	479.49692	867.57874	-45.82221	291.38739	871.94727	-42.97244	70.37908	918.95844	-79.88033	43.64301	969.80182	114.40803	33.11528	913.83368	98.10425	681.95135	1210.547	142.235	486.78601	1190.19531	29.48211	340.42123	1187.45044	-63.24427	172.89067	1149.78186	-103.66171	130.24962	1085.52295	39.42831	60.66724	1194.52466	8.85167	1812.93018	1021.08185	NaN	NaN	NaN
89	0.88	122.86812	1746.20142	935.29913	121.47891	1731.55505	1078.54016	-6.56066	1670.03357	926.72162	-20.80112	1653.65271	1069.86584	-59.83162	1530.74744	1001.69781	-111.60672	1254.95679	1008.61414	79.98086	1463.23596	992.65173	132.61804	1291.71631	1005.54382	-117.97472	1356.74731	1067.75305	15.42247	1502.46313	822.57794	40.4708	1302.78186	740.19727	71.78421	1163.31335	728.51526	128.60541	1042.30261	730.16272	218.09254	948.24408	782.01379	181.53835	932.26825	742.0058	224.67052	882.72717	744.86774	17.27528	1500.78357	1188.6637	-10.17004	1310.65979	1275.4624	8.75138	1164.2655	1294.88782	48.15519	1049.31763	1310.57397	103.84818	926.65503	1284.16479	62.56073	920.23938	1322.31482	103.49652	859.48846	1317.71436	115.58006	995.59906	871.32458	123.19978	981.92065	1124.65479	-90.74767	1040.15503	958.45636	-91.65832	1037.14063	1074.40686	46.3575	680.66852	832.79797	12.08879	479.19656	868.09039	-43.81852	291.64713	872.45581	-42.66712	70.52793	919.27222	-79.74809	43.83713	970.06323	114.59687	33.00978	913.81073	110.46964	683.07251	1209.99561	157.49477	487.94232	1188.67639	51.22965	336.26096	1186.34985	-34.20127	164.61719	1150.28516	-73.52002	120.04173	1086.38232	74.52998	58.17381	1193.76819	19.30955	1813.0271	1021.91577	NaN	NaN	NaN
